<?xml version="1.0" encoding="utf-8"?>
<!-- Generator: Adobe Illustrator 19.2.0, SVG Export Plug-In . SVG Version: 6.00 Build 0)  -->
<!DOCTYPE svg PUBLIC "-//W3C//DTD SVG 1.1//EN" "http://www.w3.org/Graphics/SVG/1.1/DTD/svg11.dtd">
<svg version="1.1" id="Layer_1" xmlns="http://www.w3.org/2000/svg" xmlns:xlink="http://www.w3.org/1999/xlink" x="0px" y="0px"
	 viewBox="0 0 72 72" enable-background="new 0 0 72 72" xml:space="preserve">
<g>
	<path d="M40.2,5.9c0,0,20.5,19.9,23.5,24.7c3,4.8,5.6,8.9,0.6,15.8S37.9,66.8,37.9,66.8s-3.4,2.4-4.9,0.5c-0.4-0.6-0.2-1.9,1.1-3.5
		c4.1-5,21.6-18.1,20.9-26.9C54.3,28.1,37.1,8.5,37.1,8.5S35.4,6,36.6,5C38.2,3.7,40.2,5.9,40.2,5.9"/>
	<path d="M30.6,9.9c0,0-18.3,15.3-21.1,19.1S4.3,36.1,8,42.1s20.7,18.6,20.7,18.6s2.7,2.2,4,0.7c0.4-0.4,0.3-1.6-0.7-3
		C29,54,15.3,42,16.4,34.8C17.6,27.6,33,12.3,33,12.3s1.6-2,0.6-2.9C32.5,8.3,30.6,9.9,30.6,9.9"/>
	<path d="M38.1,18.6c0,0-12.3,10.1-14.2,12.6c-1.9,2.5-3.5,4.7-1.1,8.7s13.7,12.5,13.7,12.5s1.8,1.5,2.7,0.5c0.3-0.3,0.2-1-0.4-2
		c-2-3-11.1-11-10.3-15.8c0.8-4.8,11.2-14.9,11.2-14.9s1.1-1.3,0.4-1.9C39.3,17.5,38.1,18.6,38.1,18.6"/>
</g>
</svg>
